<svg xmlns="http://www.w3.org/2000/svg" viewBox="0 0 512 512">
  <defs>
    <linearGradient id="bg" x1="0" x2="1" y1="0" y2="1">
      <stop offset="0%" stop-color="#f8ecdf" />
      <stop offset="100%" stop-color="#e6d4c0" />
    </linearGradient>
    <linearGradient id="snake" x1="0" x2="1" y1="0" y2="1">
      <stop offset="0%" stop-color="#bb7a4f" />
      <stop offset="100%" stop-color="#7a4b2f" />
    </linearGradient>
  </defs>
  <rect width="512" height="512" rx="118" fill="url(#bg)" />
  <rect x="92" y="220" width="98" height="98" rx="28" fill="url(#snake)" />
  <rect x="184" y="220" width="98" height="98" rx="28" fill="url(#snake)" />
  <rect x="276" y="220" width="98" height="98" rx="28" fill="url(#snake)" />
  <rect x="276" y="128" width="98" height="98" rx="28" fill="url(#snake)" />
  <circle cx="308" cy="160" r="10" fill="#fff" />
  <circle cx="342" cy="160" r="10" fill="#fff" />
  <ellipse cx="146" cy="150" rx="44" ry="22" fill="#734128" />
  <ellipse cx="146" cy="118" rx="34" ry="24" fill="#855135" />
  <ellipse cx="146" cy="92" rx="24" ry="18" fill="#9a6647" />
  <rect x="322" y="336" width="98" height="78" rx="22" fill="#8d5a39" />
  <circle cx="352" cy="372" r="14" fill="#86cb59" />
  <circle cx="388" cy="358" r="12" fill="#86cb59" />
  <circle cx="388" cy="388" r="10" fill="#a6df7f" />
</svg>
